<svg xmlns="http://www.w3.org/2000/svg" xml:space="preserve" width="344" height="360" overflow="hidden"><defs><clipPath id="a"><path d="M468 180h344v360H468z"/></clipPath></defs><g clip-path="url(#a)" transform="translate(-468 -180)"><path fill="#969CA0" d="M706.258 328.88a236.757 236.757 0 0 1 24.738-14.708 304.82 304.82 0 0 1 52.474-20.5c2.6-.748 5.999-.589 7.759-5.046-27.377-.159-51.715 9.273-76.142 18.148-24.707 8.974-48.375 20.052-69.283 36.694a11.08 11.08 0 0 1-.769-1.925c-.31-38.648 4.66-75.9 28.487-108.237 1.51-2.054 3.58-4.128 2-7.08-2.27-1.495-4.39-.438-6.27.4-17.658 7.777-27.527 23.222-37.376 39.126-19.278-15.375-39.685-27.82-63.293-37.093.67 4.567 2.81 6.472 4.92 8.197 16.747 13.76 31.756 29.335 46.994 44.671a6.732 6.732 0 0 1 2.41 4.218c-7.799 18.945-12.558 39.216-16.918 60.046-2.69-.927-4.56-1.555-6.419-2.234-32.647-11.785-66.373-10.998-100.16-7.907-3.779.339-8.069.668-10.388 4.777 1.5 4.507 5.53 4.606 8.999 5.175 9.679 1.605 19.428 2.831 29.117 4.397 18.898 3.061 37.735 6.391 55.764 13.122 6.19 2.303 12.388 4.647 18.228 8.097-9.49 51.281-20.249 101.905-23.087 153.895-21.949 1.207-43.216.887-63.844 6.711 2.36 3.151 5.46 3.23 8.31 3.709 15.477 2.582 31.146 3.28 46.764 3.679 39.476.997 78.991 1.376 118.428-.887 9.998-.578 19.997-.917 29.796-2.842 2.67-.528 5.61-.638 8.31-3.988-18.459-5.385-36.997-4.408-55.555-6.282-1.48-11.168-2.91-22.136-4.41-33.105-3.899-28.607-7.899-57.194-11.688-85.812-.55-4.228-2.54-8.565-1.05-12.783 6.78-19.214 18.458-35.118 33.587-48.779 29.136-.997 58.083-1.386 87.14 2.134-9.459-7.429-20.837-9.363-31.917-12.095-11.288-2.842-22.848-4.397-35.656-5.893Z"/><path fill="#85A76A" d="M706.898 294.938c13.598-.13 24.297-11.277 24.148-25.137-.356-13.526-11.64-24.204-25.203-23.85-13.564.355-24.27 11.607-23.915 25.133.352 13.435 11.494 24.079 24.97 23.854ZM621.187 221.171c11.374.033 20.627-9.12 20.688-20.46.15-10.99-8.689-20.442-19.338-20.711-12.248-.3-21.558 8.466-21.627 20.381-.2 11.27 8.796 20.568 20.098 20.77ZM505.54 311.281c-.27-10.293-8.673-18.519-18.998-18.597-10.165.18-18.318 8.438-18.338 18.577-.229 10.108 7.802 18.487 17.938 18.716h.63c10.344-.033 18.724-8.381 18.768-18.696ZM603.92 297.66c.464-9.912-7.219-18.323-17.16-18.786-9.939-.462-18.373 7.198-18.837 17.111v1.884c-.46 9.913 7.223 18.321 17.163 18.781 9.94.46 18.372-7.203 18.833-17.115.035-.625.035-1.251 0-1.875ZM795.299 306.634c-8.32-.1-15.9 7.379-16.089 15.884-.128 9.013 7.09 16.426 16.129 16.562h.19c8.834.145 16.113-6.88 16.258-15.69v-.333c.05-9.021-7.243-16.373-16.288-16.423h-.01ZM530.557 273.2c8.14.06 14.289-5.673 14.359-13.39.07-7.718-5.91-13.522-14.119-13.522s-14.468 5.754-14.598 13.272c-.21 7.19 6.559 13.58 14.358 13.64ZM774.05 262.82c7.32-.002 13.309-5.807 13.52-13.101.167-7.222-5.567-13.213-12.81-13.382h-.299c-7.078-.338-13.09 5.109-13.428 12.166l-.001.01v.787c-.026 7.27 5.733 13.252 13.019 13.52Z"/></g></svg>